<svg xmlns="http://www.w3.org/2000/svg" viewBox="0 0 153.8125 52" width="153.8125" height="52">
    <defs>
        <linearGradient x1="0" y1="39.9841302%" x2="100%" y2="59.4598628%" id="gradient-1">
            <stop stop-color="#ff00f0" offset="0%"></stop>
            <stop stop-color="#0050ff" offset="100%"></stop>
        </linearGradient>
    </defs>
    <defs>
        <linearGradient x1="0%" y1="39.9841302%" x2="100%" y2="59.4598628%" id="gradient-2">
            <stop stop-color="#ff00f0" offset="0%"></stop>
            <stop stop-color="#cd10f3" offset="100%"></stop>
        </linearGradient>
    </defs>
    <defs>
        <linearGradient x1="0%" y1="39.9841302%" x2="100%" y2="59.4598628%" id="gradient-3">
            <stop stop-color="#de0af2" offset="0%"></stop>
            <stop stop-color="#0050ff" offset="100%"></stop>
        </linearGradient>
    </defs>
    <rect fill="none" stroke="url(#gradient-1)" stroke-width="3" width="150.8125" height="49" x="1.5" y="1.5"/>
    <g fill="url(#gradient-2)" transform="translate(12, 11.999999999999998) scale(0.2800001)">
        <svg width="100.0" height="100.0" viewBox="0 0 100 100">
            <path d="M5.75,9.15625v83.4375h89V9.15625H5.75z M36.8072929,15.9934893c2.8161049,0,5.0989571,2.2828531,5.0989571,5.098958  s-2.2828522,5.098959-5.0989571,5.098959c-2.8159943,0-5.098959-2.2828522-5.098959-5.098959  S33.9912987,15.9934893,36.8072929,15.9934893z M20.0039062,15.9934893c2.8161068,0,5.098959,2.2828531,5.098959,5.098958  s-2.2828522,5.098959-5.098959,5.098959c-2.8159924,0-5.098958-2.2828522-5.098958-5.098959  S17.1879139,15.9934893,20.0039062,15.9934893z M85.4791641,83.3229141H15.020833V35.1145821h70.4583282V83.3229141z"/>
        </svg>
    </g>
    <path fill="url(#gradient-3)" d="M2.88 22.25L0 2.24L2.91 2.24L4.25 14.33L4.41 17.16L4.70 17.16L4.98 13.98L7.14 2.24L9.56 2.24L11.63 13.98L11.86 17.16L12.16 17.16L12.30 14.33L13.54 2.24L16.45 2.24L13.65 22.25L10.57 22.25L8.92 12.63L8.40 8.45L8.17 8.45L7.66 12.63L5.93 22.25L2.88 22.25ZM20.00 3.81L20.00 3.81Q19.18 3.81 18.71 3.32Q18.23 2.82 18.23 1.88L18.23 1.88Q18.23 1.35 18.36 0.99Q18.48 0.63 18.71 0.42Q18.94 0.20 19.27 0.10Q19.59 0 20.02 0L20.02 0Q20.89 0 21.35 0.45Q21.81 0.89 21.81 1.88L21.81 1.88Q21.81 2.79 21.35 3.30Q20.88 3.81 20.00 3.81ZM18.47 22.25L18.47 6.12L21.43 6.12L21.43 22.25L18.47 22.25ZM24.53 22.25L24.53 6.12L26.81 6.12L27.08 7.84L27.08 7.85Q27.43 7.30 27.84 6.93Q28.24 6.56 28.68 6.34Q29.11 6.12 29.56 6.02Q30.01 5.93 30.46 5.93L30.46 5.93Q31.88 5.93 32.64 6.92Q33.41 7.91 33.41 9.89L33.41 9.89L33.41 22.25L30.45 22.25L30.45 10.00Q30.45 8.93 30.12 8.51Q29.79 8.10 29.16 8.10L29.16 8.10Q28.71 8.10 28.27 8.39Q27.83 8.68 27.49 9.20L27.49 9.20L27.49 22.25L24.53 22.25ZM36.67 22.25L36.67 2.24L39.74 2.24Q40.42 2.24 41.14 2.29Q41.87 2.33 42.56 2.48Q43.25 2.64 43.88 2.94Q44.50 3.23 44.96 3.74Q45.42 4.24 45.70 4.99Q45.97 5.73 45.97 6.77L45.97 6.77L45.97 7.75Q45.97 8.54 45.74 9.21Q45.52 9.88 45.14 10.39Q44.77 10.90 44.29 11.23Q43.80 11.57 43.30 11.68L43.30 11.68L43.30 11.78Q44.79 12.05 45.54 13.19Q46.30 14.33 46.30 16.11L46.30 16.11L46.30 17.13Q46.30 18.22 46.06 19.03Q45.82 19.83 45.39 20.40Q44.95 20.96 44.36 21.33Q43.76 21.69 43.04 21.90Q42.33 22.10 41.52 22.18Q40.71 22.25 39.86 22.25L39.86 22.25L36.67 22.25ZM39.64 10.80L40.23 10.80Q40.84 10.80 41.34 10.66Q41.85 10.51 42.21 10.20Q42.56 9.89 42.76 9.39Q42.95 8.89 42.95 8.19L42.95 8.19L42.95 7.37Q42.95 6.67 42.81 6.13Q42.67 5.59 42.35 5.21Q42.02 4.84 41.50 4.65Q40.98 4.45 40.23 4.45L40.23 4.45L39.64 4.45L39.64 10.80ZM39.64 20.14L40.51 20.14Q41.12 20.14 41.62 19.99Q42.12 19.83 42.47 19.49Q42.83 19.16 43.03 18.64Q43.22 18.13 43.22 17.43L43.22 17.43L43.22 15.87Q43.22 15.16 43.08 14.62Q42.94 14.07 42.62 13.71Q42.29 13.34 41.78 13.14Q41.26 12.95 40.51 12.95L40.51 12.95L39.64 12.95L39.64 20.14ZM52.82 22.43L52.82 22.43Q52.30 22.43 51.77 22.35Q51.23 22.27 50.74 22.01Q50.24 21.75 49.80 21.27Q49.36 20.79 49.03 20.00Q48.70 19.22 48.52 18.07Q48.33 16.92 48.33 15.33L48.33 15.33L48.33 12.80Q48.33 11.23 48.52 10.11Q48.71 8.99 49.05 8.23Q49.38 7.46 49.83 7.01Q50.27 6.56 50.77 6.32Q51.27 6.08 51.80 6.01Q52.32 5.93 52.83 5.93L52.83 5.93Q53.31 5.93 53.82 6Q54.34 6.07 54.83 6.30Q55.32 6.53 55.76 6.98Q56.20 7.43 56.54 8.19Q56.87 8.95 57.06 10.08Q57.26 11.21 57.26 12.80L57.26 12.80L57.26 15.33Q57.26 16.90 57.06 18.04Q56.86 19.17 56.52 19.96Q56.18 20.74 55.73 21.23Q55.29 21.71 54.80 21.98Q54.30 22.25 53.79 22.34Q53.29 22.43 52.82 22.43ZM52.84 20.14L52.84 20.14Q53.24 20.14 53.51 19.94Q53.79 19.73 53.96 19.27Q54.13 18.80 54.21 18.03Q54.28 17.26 54.28 16.13L54.28 16.13L54.28 12.15Q54.28 11.02 54.21 10.24Q54.13 9.47 53.96 8.99Q53.79 8.52 53.51 8.31Q53.24 8.10 52.84 8.10L52.84 8.10Q52.42 8.10 52.13 8.31Q51.84 8.52 51.66 8.99Q51.47 9.47 51.39 10.24Q51.30 11.02 51.30 12.15L51.30 12.15L51.30 16.13Q51.30 17.26 51.39 18.03Q51.47 18.80 51.66 19.27Q51.84 19.73 52.13 19.94Q52.42 20.14 52.84 20.14ZM58.65 22.25L62.00 14.06L58.82 6.12L61.85 6.12L63.57 11.40L63.60 11.40L65.43 6.12L68.26 6.12L65.20 13.78L68.64 22.25L65.60 22.25L63.61 16.69L63.52 16.69L61.50 22.25L58.65 22.25ZM70.00 20.16L70.00 20.16Q70.00 18.91 70.49 18.38Q70.98 17.84 71.82 17.84L71.82 17.84Q72.70 17.84 73.18 18.41Q73.66 18.98 73.66 20.16L73.66 20.16Q73.66 21.23 73.18 21.83Q72.69 22.42 71.81 22.42L71.81 22.42Q70.98 22.42 70.49 21.84Q70.00 21.27 70.00 20.16ZM77.91 3.81L77.91 3.81Q77.09 3.81 76.61 3.32Q76.14 2.82 76.14 1.88L76.14 1.88Q76.14 1.35 76.26 0.99Q76.38 0.63 76.61 0.42Q76.84 0.20 77.17 0.10Q77.50 0 77.92 0L77.92 0Q78.80 0 79.25 0.45Q79.71 0.89 79.71 1.88L79.71 1.88Q79.71 2.79 79.25 3.30Q78.79 3.81 77.91 3.81ZM76.37 23.61L76.37 6.12L79.34 6.12L79.34 23.24Q79.34 24.56 79.07 25.38Q78.81 26.20 78.36 26.67Q77.92 27.13 77.34 27.29Q76.77 27.46 76.15 27.46L76.15 27.46Q75.80 27.46 75.43 27.40Q75.07 27.34 74.72 27.18L74.72 27.18L74.72 25.45Q74.81 25.46 74.91 25.47Q75 25.48 75.09 25.48L75.09 25.48Q75.35 25.48 75.59 25.38Q75.82 25.29 76.00 25.07Q76.17 24.86 76.27 24.50Q76.37 24.14 76.37 23.61L76.37 23.61ZM81.80 18.88L81.80 18.88Q81.80 18.35 81.90 17.86Q82.00 17.37 82.09 17.07L82.09 17.07L84.18 17.07Q84.18 17.95 84.26 18.54Q84.35 19.14 84.55 19.49Q84.75 19.84 85.08 19.99Q85.42 20.14 85.90 20.14L85.90 20.14Q86.57 20.14 86.87 19.77Q87.18 19.39 87.18 18.90L87.18 18.90Q87.18 18.64 87.11 18.41Q87.04 18.18 86.91 17.94Q86.78 17.70 86.59 17.45Q86.40 17.20 86.17 16.91L86.17 16.91L84 14.36Q83.58 13.83 83.19 13.28Q82.79 12.74 82.49 12.16Q82.20 11.58 82.01 10.95Q81.83 10.31 81.83 9.61L81.83 9.61Q81.83 8.67 82.15 7.98Q82.48 7.29 83.02 6.83Q83.57 6.38 84.28 6.15Q85.00 5.93 85.79 5.93L85.79 5.93Q86.67 5.93 87.38 6.14Q88.08 6.35 88.58 6.77Q89.09 7.20 89.36 7.82Q89.63 8.45 89.63 9.28L89.63 9.28Q89.63 9.84 89.53 10.37Q89.43 10.90 89.33 11.27L89.33 11.27L87.28 11.27Q87.27 10.48 87.21 9.88Q87.15 9.28 86.99 8.89Q86.84 8.50 86.56 8.30Q86.29 8.10 85.84 8.10L85.84 8.10Q85.45 8.10 85.20 8.22Q84.94 8.34 84.78 8.54Q84.62 8.74 84.56 8.99Q84.49 9.23 84.49 9.49L84.49 9.49Q84.49 10.05 84.76 10.54Q85.03 11.02 85.48 11.58L85.48 11.58L87.84 14.36Q88.10 14.67 88.44 15.12Q88.78 15.57 89.09 16.12Q89.39 16.66 89.60 17.31Q89.81 17.95 89.81 18.66L89.81 18.66Q89.81 19.51 89.54 20.21Q89.27 20.91 88.75 21.40Q88.22 21.89 87.45 22.16Q86.68 22.43 85.70 22.43L85.70 22.43Q84.89 22.43 84.18 22.25Q83.46 22.07 82.93 21.65Q82.41 21.23 82.10 20.55Q81.80 19.88 81.80 18.88Z" transform="translate(52 14.873046875)"/>
</svg>